HIERARCHY
ROOT hip
{
  OFFSET 0 0 0
  CHANNELS 6 Xposition Yposition Zposition Zrotation Yrotation Xrotation
  JOINT abdomen
  {
    OFFSET 0 20.6881 -0.73152
    CHANNELS 3 Zrotation Xrotation Yrotation
    JOINT chest
    {
      OFFSET 0 11.7043 -0.48768
      CHANNELS 3 Zrotation Xrotation Yrotation
      JOINT neck
      {
        OFFSET 0 22.1894 -2.19456
        CHANNELS 3 Zrotation Xrotation Yrotation
        JOINT head
        {
          OFFSET -0.24384 7.07133 1.2192
          CHANNELS 3 Zrotation Xrotation Yrotation
          JOINT leftEye
          {
            OFFSET 4.14528 8.04674 8.04672
            CHANNELS 3 Zrotation Xrotation Yrotation
            End Site
            {
              OFFSET 1 0 0
            }
          }
          JOINT rightEye
          {
            OFFSET -3.6576 8.04674 8.04672
            CHANNELS 3 Zrotation Xrotation Yrotation
            End Site
            {
              OFFSET 1 0 0
            }
          }
        }
      }
      JOINT rCollar
      {
        OFFSET -2.68224 19.2634 -4.8768
        CHANNELS 3 Zrotation Xrotation Yrotation
        JOINT rShldr
        {
          OFFSET -8.77824 -1.95073 1.46304
          CHANNELS 3 Zrotation Xrotation Yrotation
          JOINT rForeArm
          {
            OFFSET -28.1742 -1.7115 0.48768
            CHANNELS 3 Zrotation Xrotation Yrotation
            JOINT rHand
            {
              OFFSET -22.5879 0.773209 7.07136
              CHANNELS 3 Zrotation Xrotation Yrotation
              JOINT rThumb1
              {
                OFFSET -1.2192 -0.487915 3.41376
                CHANNELS 3 Zrotation Xrotation Yrotation
                JOINT rThumb2
                {
                  OFFSET -3.37035 -0.52449 3.41376
                  CHANNELS 3 Zrotation Xrotation Yrotation
                  End Site
                  {
                    OFFSET -1.78271 -1.18214 1.43049
                  }
                }
              }
              JOINT rIndex1
              {
                OFFSET -7.75947 0.938293 5.60832
                CHANNELS 3 Zrotation Xrotation Yrotation
                JOINT rIndex2
                {
                  OFFSET -2.54057 -0.884171 1.56538
                  CHANNELS 3 Zrotation Xrotation Yrotation
                  End Site
                  {
                    OFFSET -1.62519 -0.234802 1.16502
                  }
                }
              }
              JOINT rMid1
              {
                OFFSET -8.24714 1.18213 3.41376
                CHANNELS 3 Zrotation Xrotation Yrotation
                JOINT rMid2
                {
                  OFFSET -3.10165 -0.590103 1.0647
                  CHANNELS 3 Zrotation Xrotation Yrotation
                  End Site
                  {
                    OFFSET -2.48547 -0.328903 0.83742
                  }
                }
              }
              JOINT rRing1
              {
                OFFSET -8.82822 0.546677 1.51678
                CHANNELS 3 Zrotation Xrotation Yrotation
                JOINT rRing2
                {
                  OFFSET -2.60934 -0.819778 -0.0198488
                  CHANNELS 3 Zrotation Xrotation Yrotation
                  End Site
                  {
                    OFFSET -2.33842 -0.294052 0.168128
                  }
                }
              }
              JOINT rPinky1
              {
                OFFSET -8.27202 -0.0477905 -0.4584
                CHANNELS 3 Zrotation Xrotation Yrotation
                JOINT rPinky2
                {
                  OFFSET -1.82734 -0.647385 -0.700984
                  CHANNELS 3 Zrotation Xrotation Yrotation
                  End Site
                  {
                    OFFSET -1.69225 -0.51767 -0.607171
                  }
                }
              }
            }
          }
        }
      }
      JOINT lCollar
      {
        OFFSET 2.68224 19.2634 -4.8768
        CHANNELS 3 Zrotation Xrotation Yrotation
        JOINT lShldr
        {
          OFFSET 8.77824 -1.95073 1.46304
          CHANNELS 3 Zrotation Xrotation Yrotation
          JOINT lForeArm
          {
            OFFSET 28.1742 -1.7115 0.48768
            CHANNELS 3 Zrotation Xrotation Yrotation
            JOINT lHand
            {
              OFFSET 22.5879 0.773209 7.07136
              CHANNELS 3 Zrotation Xrotation Yrotation
              JOINT lThumb1
              {
                OFFSET 1.2192 -0.487915 3.41376
                CHANNELS 3 Zrotation Xrotation Yrotation
                JOINT lThumb2
                {
                  OFFSET 3.37035 -0.52449 3.41376
                  CHANNELS 3 Zrotation Xrotation Yrotation
                  End Site
                  {
                    OFFSET 1.78271 -1.18214 1.43049
                  }
                }
              }
              JOINT lIndex1
              {
                OFFSET 7.75947 0.938293 5.60832
                CHANNELS 3 Zrotation Xrotation Yrotation
                JOINT lIndex2
                {
                  OFFSET 2.54057 -0.884171 1.56538
                  CHANNELS 3 Zrotation Xrotation Yrotation
                  End Site
                  {
                    OFFSET 1.62519 -0.234802 1.16502
                  }
                }
              }
              JOINT lMid1
              {
                OFFSET 8.24714 1.18213 3.41376
                CHANNELS 3 Zrotation Xrotation Yrotation
                JOINT lMid2
                {
                  OFFSET 3.10165 -0.590103 1.0647
                  CHANNELS 3 Zrotation Xrotation Yrotation
                  End Site
                  {
                    OFFSET 2.48547 -0.328903 0.83742
                  }
                }
              }
              JOINT lRing1
              {
                OFFSET 8.82822 0.546677 1.51678
                CHANNELS 3 Zrotation Xrotation Yrotation
                JOINT lRing2
                {
                  OFFSET 2.60934 -0.819778 -0.0198488
                  CHANNELS 3 Zrotation Xrotation Yrotation
                  End Site
                  {
                    OFFSET 2.33842 -0.294052 0.168128
                  }
                }
              }
              JOINT lPinky1
              {
                OFFSET 8.27202 -0.0477905 -0.4584
                CHANNELS 3 Zrotation Xrotation Yrotation
                JOINT lPinky2
                {
                  OFFSET 1.82734 -0.647385 -0.700984
                  CHANNELS 3 Zrotation Xrotation Yrotation
                  End Site
                  {
                    OFFSET 1.69225 -0.51767 -0.607171
                  }
                }
              }
            }
          }
        }
      }
    }
  }
  JOINT rButtock
  {
    OFFSET -8.77824 4.35084 1.2192
    CHANNELS 3 Zrotation Xrotation Yrotation
    JOINT rThigh
    {
      OFFSET 0 -1.70687 -2.19456
      CHANNELS 3 Zrotation Xrotation Yrotation
      JOINT rShin
      {
        OFFSET 0 -36.8199 0.73152
        CHANNELS 3 Zrotation Xrotation Yrotation
        JOINT rFoot
        {
          OFFSET 0.73152 -45.1104 -5.12064
          CHANNELS 3 Zrotation Xrotation Yrotation
          End Site
          {
            OFFSET -1.1221 -3.69964 12.103
          }
        }
      }
    }
  }
  JOINT lButtock
  {
    OFFSET 8.77824 4.35084 1.2192
    CHANNELS 3 Zrotation Xrotation Yrotation
    JOINT lThigh
    {
      OFFSET 0 -1.70687 -2.19456
      CHANNELS 3 Zrotation Xrotation Yrotation
      JOINT lShin
      {
        OFFSET 0 -36.8199 0.73152
        CHANNELS 3 Zrotation Xrotation Yrotation
        JOINT lFoot
        {
          OFFSET -0.73152 -45.1104 -5.12064
          CHANNELS 3 Zrotation Xrotation Yrotation
          End Site
          {
            OFFSET 1.1221 -3.69964 12.103
          }
        }
      }
    }
  }
}
MOTION
Frames:	4
Frame Time:	0.00833333
-70.6943 85.0114 -162.077 0.0 0.0 0.0 0.0256067 -6.193e-06 0.000728849 0.00706488 8.62961e-06 0.00122384 -2.81665e-16 0.0 5.43552e-18 -8.47941e-16 3.18055e-15 1.55301e-17 -0.0 0.0 0.0 -0.0 0.0 0.0 -1.00723e-16 -1.94126e-19 1.49089e-16 -1.21629e-15 -3.23025e-16 9.93923e-16 -5.06404e-14 1.45113e-14 3.18055e-15 -5.86632e-13 -1.7667e-14 3.18055e-15 -1.3854e-12 -3.2372e-15 2.22639e-14 -2.40331e-12 -9.54166e-15 4.6118e-14 -1.38076e-12 -1.59028e-15 1.27222e-14 7.73091 5.47488 0.417314 -1.38667e-12 -3.08116e-15 1.90833e-14 2.90554 0.965183 0.102902 -1.37294e-12 -2.48481e-15 2.46493e-14 10.2786 0.731801 0.0259123 -1.3897e-12 -1.98785e-15 2.54444e-14 2.22167 -0.733487 -0.20892 -1.97463e-16 -3.88251e-19 -1.49089e-16 -4.74725e-15 -2.17421e-16 -9.93923e-16 -4.94477e-14 -1.94809e-14 -3.18055e-15 -5.90757e-13 -1.01877e-15 2.22639e-14 -1.38647e-12 -4.29945e-14 2.22639e-14 -2.37746e-12 -6.99722e-14 4.6118e-14 -1.3911e-12 -3.97569e-14 3.49861e-14 -7.73091 5.47488 -0.417314 -1.38627e-12 -4.30369e-14 2.54444e-14 -2.90554 0.965183 -0.102902 -1.39401e-12 -4.30369e-14 2.62396e-14 -10.2786 0.731801 -0.0259123 -1.37957e-12 -4.25399e-14 1.90833e-14 -2.22167 -0.733487 0.20892 -2.03217e-16 0.0 -3.88251e-19 0.512296 -3.13364 -0.0420884 -0.00562799 0.123101 -0.0495521 -0.492795 3.00963 0.117359 2.03217e-16 0.0 3.88251e-19 -0.473329 -3.03453 0.0397105 0.00592201 -0.0564357 0.0521752 0.492509 3.09005 -0.118956
-72.1312 81.2178 -163.724 -3.5955 -6.7146 5.6103 2.16079 3.49339 -0.619796 2.04884 -1.89126 0.0786672 -3.216 0.206525 -0.23194 2.31444 -5.22487 0.7786 -0.0 0.0 0.0 -0.0 0.0 0.0 -2.30216e-14 -2.11125e-15 3.51134e-15 18.282 14.2326 1.40426 -26.4436 -24.1054 13.9493 0.00188439 -0.970861 -0.136377 6.27406e-11 1.11851e-09 -2.04806e-10 1.0915e-10 1.93854e-09 -3.54093e-10 6.27462e-11 1.11852e-09 -2.04813e-10 7.73091 5.47488 0.417314 6.27393e-11 1.11851e-09 -2.04808e-10 2.90554 0.965183 0.102902 6.27515e-11 1.11851e-09 -2.04802e-10 10.2786 0.731801 0.0259123 6.27378e-11 1.11852e-09 -2.048e-10 2.22167 -0.733487 -0.20892 -2.31077e-14 -2.11352e-15 3.27335e-15 -24.457 8.49227 3.71772 22.9011 -20.7738 -14.9031 -0.0815128 -6.34373 0.871976 5.77789e-11 3.43945e-10 1.51417e-10 9.66609e-11 5.75794e-10 2.63462e-10 5.77755e-11 3.43951e-10 1.51429e-10 -7.73091 5.47488 -0.417314 5.77795e-11 3.43947e-10 1.5142e-10 -2.90554 0.965183 -0.102902 5.77719e-11 3.43947e-10 1.5142e-10 -10.2786 0.731801 -0.0259123 5.77848e-11 3.43949e-10 1.51414e-10 -2.22167 -0.733487 0.20892 -2.03217e-16 0.0 -3.88251e-19 2.92958 -10.0971 -1.32835 -0.0787466 13.5456 0.0573116 -0.914918 -1.79628 -3.90168 2.03217e-16 0.0 3.88251e-19 0.924507 -10.1125 -0.739968 0.0382525 22.6684 -0.252125 0.379928 6.88635 -0.731331
-72.3583 81.1819 -162.037 -4.2669 -7.7379 6.3835 4.46493 7.24469 -1.30926 4.27649 -3.96852 0.16015 -6.622 0.375074 -0.477579 4.87963 -10.671 1.62043 -0.0 0.0 0.0 -0.0 0.0 0.0 -4.3751e-14 -2.18467e-15 5.95112e-15 36.7521 29.2234 3.13123 -37.802 -44.1347 37.9118 -0.00115722 -1.98289 -0.27867 1.42916e-10 2.35745e-09 -4.19651e-10 2.48568e-10 4.08622e-09 -7.25618e-10 1.42923e-10 2.35748e-09 -4.19654e-10 7.73091 5.47488 0.417314 1.42915e-10 2.35745e-09 -4.1965e-10 2.90554 0.965183 0.102902 1.42926e-10 2.35746e-09 -4.19643e-10 10.2786 0.731801 0.0259123 1.42915e-10 2.35747e-09 -4.19641e-10 2.22167 -0.733487 -0.20892 -4.38258e-14 -2.18923e-15 5.78028e-15 -51.5911 17.3481 7.92934 33.2949 -37.6204 -37.2237 0.0471877 -13.0205 1.82664 1.2306e-10 7.48472e-10 3.07799e-10 2.06234e-10 1.25613e-09 5.35611e-10 1.23058e-10 7.48479e-10 3.0781e-10 -7.73091 5.47488 -0.417314 1.23061e-10 7.48475e-10 3.07802e-10 -2.90554 0.965183 -0.102902 1.23054e-10 7.48475e-10 3.078e-10 -10.2786 0.731801 -0.0259123 1.23065e-10 7.48478e-10 3.07798e-10 -2.22167 -0.733487 0.20892 -2.03217e-16 0.0 -3.88251e-19 5.1131 -17.5486 -2.78587 -0.219296 27.7967 0.186336 -2.10291 -6.85925 -8.21251 2.03217e-16 0.0 3.88251e-19 2.1588 -17.505 -1.64908 0.440895 46.7206 -0.779082 0.352121 11.0146 -1.41278
-72.2559 81.3633 -159.973 -4.6451 -5.8827 6.0395 6.66139 10.4752 -1.88888 6.14779 -5.67374 0.234575 -9.64298 0.619534 -0.695856 7.38316 -15.6628 2.41585 -0.0 0.0 0.0 -0.0 0.0 0.0 -6.88633e-14 -6.33337e-15 1.02359e-14 52.1213 42.5759 5.54926 -31.2508 -49.2044 70.931 -0.00822721 -2.91252 -0.409602 1.90993e-10 3.35553e-09 -6.14464e-10 3.32256e-10 5.81563e-09 -1.06237e-09 1.91e-10 3.35556e-09 -6.14465e-10 7.73091 5.47488 0.417314 1.90991e-10 3.35553e-09 -6.14461e-10 2.90554 0.965183 0.102902 1.91e-10 3.35554e-09 -6.14455e-10 10.2786 0.731801 0.0259123 1.90993e-10 3.35556e-09 -6.14452e-10 2.22167 -0.733487 -0.20892 -6.89281e-14 -6.33979e-15 1.01182e-14 -76.943 25.0252 12.1902 30.7463 -42.2466 -64.077 0.362932 -19.013 2.75005 1.7611e-10 1.03192e-09 4.54205e-10 2.94738e-10 1.72752e-09 7.90293e-10 1.76109e-10 1.03193e-09 4.54216e-10 -7.73091 5.47488 -0.417314 1.76111e-10 1.03193e-09 4.54208e-10 -2.90554 0.965183 -0.102902 1.76104e-10 1.03193e-09 4.54206e-10 -10.2786 0.731801 -0.0259123 1.76114e-10 1.03193e-09 4.54205e-10 -2.22167 -0.733487 0.20892 -2.03217e-16 0.0 -3.88251e-19 6.7482 -23.9746 -4.20239 -0.411024 40.39 0.349579 -3.79595 -11.1706 -12.1676 2.03217e-16 0.0 3.88251e-19 3.09338 -24.2507 -2.48404 1.80828 68.1045 -2.15186 0.405578 14.4721 -2.00422
